<svg width="1279" height="405" viewBox="0 0 1279 405" fill="none" xmlns="http://www.w3.org/2000/svg">
<g clip-path="url(#clip0_2002_78)">
<path d="M874.219 178.498C882.838 129.403 947.23 136.495 947.23 178.498H931.513C926.949 148.496 891.735 155.852 890.951 178.498C890.166 201.145 889.085 200.44 890.951 214.502C897.035 241.777 928.471 239.595 931.513 214.502H947.23C949.258 251.596 884.867 266.325 874.219 214.502C872.429 200.439 872.414 192.561 874.219 178.498Z" fill="white"/>
<path d="M716.535 145.768V159.406H744.928V247.232H761.153V159.406H790.56V145.768H716.535Z" fill="white"/>
<path d="M714 15.4834H732.253L756.083 94.0359L779.913 15.4834H797.659L764.195 116.401H747.971L714 15.4834Z" fill="white"/>
<path d="M808.813 15.4834H824.531V102.764H867.121V116.401H808.813V15.4834Z" fill="white"/>
<path d="M801.715 145.768V247.232H863.572V233.049H818.954V201.41H857.487V187.772H818.954V159.951H863.572V145.768H801.715Z" fill="white"/>
<path d="M947.23 48.2136C947.23 6.21004 882.838 -0.881496 874.219 48.2136C872.414 62.2762 872.429 70.1544 874.219 84.217C884.867 136.04 949.258 121.311 947.23 84.217H931.513C928.471 109.31 897.035 111.492 890.951 84.217C889.085 70.1554 890.166 70.86 890.951 48.2136C891.735 25.5672 926.949 18.2111 931.513 48.2136H947.23Z" fill="white"/>
<path d="M961.934 145.768H978.159V187.226H1020.75V145.768H1036.97V247.232H1020.75V202.501H978.159V247.232H961.934V145.768Z" fill="white"/>
<path d="M956.357 276.416H1036.47V295.509H1007.57V380.062H984.243V295.509H956.357V276.416Z" fill="white"/>
<path d="M945.202 306.964C946.216 265.506 872.191 262.233 872.191 306.964V309.146C872.191 313.663 878.917 326.057 889.43 330.421C901.116 335.272 906.669 336.575 916.302 342.422C920.495 345.575 922.029 346.902 921.879 350.605C921.333 368.275 892.472 364.941 892.472 346.786H869.149C869.149 388.79 946.216 395.882 945.202 346.786C945.266 335.748 934.632 328.047 916.302 319.511C910.046 316.598 904.64 316.783 896.528 308.462L895.514 306.964C889.43 294.963 920.513 284.445 921.879 306.964H945.202Z" fill="white"/>
<path d="M792.081 276.416H857.487V294.963H814.897V317.874H850.389V335.33H814.897V360.424H857.487V379.516H792.081V276.416Z" fill="white"/>
<path d="M716.028 379.516H738.844V338.603H776.364V318.965H738.844V294.963H780.42V276.416H716.028V379.516Z" fill="white"/>
<path d="M1063.85 275.87H1075L1072.46 298.781H1066.38L1063.85 275.87Z" fill="white"/>
<path d="M874.219 178.498C882.838 129.403 947.23 136.495 947.23 178.498H931.513C926.949 148.496 891.735 155.852 890.951 178.498C890.166 201.145 889.085 200.44 890.951 214.502C897.035 241.777 928.471 239.595 931.513 214.502H947.23C949.258 251.596 884.867 266.325 874.219 214.502C872.429 200.439 872.414 192.561 874.219 178.498Z" stroke="white"/>
<path d="M716.535 145.768V159.406H744.928V247.232H761.153V159.406H790.56V145.768H716.535Z" stroke="white"/>
<path d="M714 15.4834H732.253L756.083 94.0359L779.913 15.4834H797.659L764.195 116.401H747.971L714 15.4834Z" stroke="white"/>
<path d="M808.813 15.4834H824.531V102.764H867.121V116.401H808.813V15.4834Z" stroke="white"/>
<path d="M801.715 145.768V247.232H863.572V233.049H818.954V201.41H857.487V187.772H818.954V159.951H863.572V145.768H801.715Z" stroke="white"/>
<path d="M947.23 48.2136C947.23 6.21004 882.838 -0.881496 874.219 48.2136C872.414 62.2762 872.429 70.1544 874.219 84.217C884.867 136.04 949.258 121.311 947.23 84.217H931.513C928.471 109.31 897.035 111.492 890.951 84.217C889.085 70.1554 890.166 70.86 890.951 48.2136C891.735 25.5672 926.949 18.2111 931.513 48.2136H947.23Z" stroke="white"/>
<path d="M961.934 145.768H978.159V187.226H1020.75V145.768H1036.97V247.232H1020.75V202.501H978.159V247.232H961.934V145.768Z" stroke="white"/>
<path d="M956.357 276.416H1036.47V295.509H1007.57V380.062H984.243V295.509H956.357V276.416Z" stroke="white"/>
<path d="M945.202 306.964C946.216 265.506 872.191 262.233 872.191 306.964V309.146C872.191 313.663 878.917 326.057 889.43 330.421C901.116 335.272 906.669 336.575 916.302 342.422C920.495 345.575 922.029 346.902 921.879 350.605C921.333 368.275 892.472 364.941 892.472 346.786H869.149C869.149 388.79 946.216 395.882 945.202 346.786C945.266 335.748 934.632 328.047 916.302 319.511C910.046 316.598 904.64 316.783 896.528 308.462L895.514 306.964C889.43 294.963 920.513 284.445 921.879 306.964H945.202Z" stroke="white"/>
<path d="M792.081 276.416H857.487V294.963H814.897V317.874H850.389V335.33H814.897V360.424H857.487V379.516H792.081V276.416Z" stroke="white"/>
<path d="M716.028 379.516H738.844V338.603H776.364V318.965H738.844V294.963H780.42V276.416H716.028V379.516Z" stroke="white"/>
<path d="M1063.85 275.87H1075L1072.46 298.781H1066.38L1063.85 275.87Z" stroke="white"/>
<rect x="20.6157" y="14.7362" width="99.6564" height="99.6564" fill="#C9177C"/>
<rect x="152.046" y="14.7362" width="99.6564" height="99.6564" fill="#C9177C"/>
<path d="M283.476 114.396V94.4642L363.204 14.7362L383.136 14.7362V34.6682L303.408 114.396H283.476Z" fill="white"/>
<path d="M283.476 54.6002V14.7362L323.34 14.7362L283.476 54.6002Z" fill="white"/>
<path d="M383.136 74.5322V114.396L343.272 114.396L383.136 74.5322Z" fill="white"/>
<path d="M283.476 114.396V94.4642L363.204 14.7362L383.136 14.7362V34.6682L303.408 114.396H283.476Z" stroke="white" stroke-width="1.05913"/>
<path d="M283.476 54.6002V14.7362L323.34 14.7362L283.476 54.6002Z" stroke="white" stroke-width="1.05913"/>
<path d="M383.136 74.5322V114.396L343.272 114.396L383.136 74.5322Z" stroke="white" stroke-width="1.05913"/>
<path d="M414.91 114.396V94.4642L494.638 14.7362L514.57 14.7362V34.6682L434.842 114.396H414.91Z" fill="white"/>
<path d="M414.91 54.6002V14.7362L454.774 14.7362L414.91 54.6002Z" fill="white"/>
<path d="M514.57 74.5322V114.396L474.706 114.396L514.57 74.5322Z" fill="white"/>
<path d="M414.91 114.396V94.4642L494.638 14.7362L514.57 14.7362V34.6682L434.842 114.396H414.91Z" stroke="white" stroke-width="1.05913"/>
<path d="M414.91 54.6002V14.7362L454.774 14.7362L414.91 54.6002Z" stroke="white" stroke-width="1.05913"/>
<path d="M514.57 74.5322V114.396L474.706 114.396L514.57 74.5322Z" stroke="white" stroke-width="1.05913"/>
<rect x="546.344" y="14.7362" width="99.6564" height="99.6564" fill="#C9177C"/>
<rect x="152" y="277" width="99.6564" height="99.6564" fill="#C9177C"/>
<rect x="283.479" y="146.17" width="99.6564" height="99.6564" fill="#C9177C"/>
<rect x="414.91" y="146.17" width="99.6564" height="99.6564" fill="#C9177C"/>
<path d="M546.34 245.83V225.898L626.068 146.17H646V166.102L566.272 245.83H546.34Z" fill="white"/>
<path d="M546.34 186.034V146.17H586.204L546.34 186.034Z" fill="white"/>
<path d="M646 205.966V245.83H606.136L646 205.966Z" fill="white"/>
<path d="M546.34 245.83V225.898L626.068 146.17H646V166.102L566.272 245.83H546.34Z" stroke="white" stroke-width="1.05913"/>
<path d="M546.34 186.034V146.17H586.204L546.34 186.034Z" stroke="white" stroke-width="1.05913"/>
<path d="M646 205.966V245.83H606.136L646 205.966Z" stroke="white" stroke-width="1.05913"/>
<rect x="283.479" y="277.604" width="99.6564" height="99.6564" fill="#C9177C"/>
<rect x="414.91" y="277.604" width="99.6564" height="99.6564" fill="#C9177C"/>
<path d="M546.34 377.264V357.332L626.068 277.604H646V297.536L566.272 377.264H546.34Z" fill="white"/>
<path d="M546.34 317.468V277.604H586.204L546.34 317.468Z" fill="white"/>
<path d="M646 337.4V377.264H606.136L646 337.4Z" fill="white"/>
<path d="M546.34 377.264V357.332L626.068 277.604H646V297.536L566.272 377.264H546.34Z" stroke="white" stroke-width="1.05913"/>
<path d="M546.34 317.468V277.604H586.204L546.34 317.468Z" stroke="white" stroke-width="1.05913"/>
<path d="M646 337.4V377.264H606.136L646 337.4Z" stroke="white" stroke-width="1.05913"/>
<path d="M1095.89 384V367.172L1123.94 338.285C1129.45 332.582 1133.61 328.095 1136.42 324.822C1139.31 321.457 1141.28 318.652 1142.31 316.409C1143.43 314.165 1143.99 311.968 1143.99 309.818C1143.99 305.985 1142.73 302.993 1140.2 300.843C1137.77 298.599 1134.69 297.477 1130.95 297.477C1127.11 297.477 1123.7 298.599 1120.71 300.843C1117.72 302.993 1115.52 306.312 1114.12 310.799L1095.19 304.629C1096.31 299.207 1098.65 294.486 1102.2 290.466C1105.75 286.446 1110.05 283.361 1115.1 281.211C1120.15 278.967 1125.43 277.845 1130.95 277.845C1137.87 277.845 1143.94 279.06 1149.18 281.491C1154.41 283.922 1158.48 287.334 1161.38 291.728C1164.28 296.122 1165.72 301.264 1165.72 307.153C1165.72 310.893 1165.07 314.586 1163.76 318.232C1162.45 321.784 1160.44 325.43 1157.73 329.17C1155.11 332.816 1151.7 336.789 1147.49 341.089L1123.52 365.77H1166.71V384H1095.89ZM1214.9 385.683C1209.39 385.683 1204.06 384.654 1198.92 382.598C1193.78 380.447 1189.38 377.456 1185.74 373.623C1182.09 369.696 1179.71 365.022 1178.58 359.6L1197.8 353.149C1199.2 357.637 1201.44 360.909 1204.53 362.965C1207.61 365.022 1211.07 366.05 1214.9 366.05C1218.18 366.05 1221.03 365.396 1223.46 364.087C1225.89 362.685 1227.76 360.768 1229.07 358.338C1230.47 355.814 1231.17 352.915 1231.17 349.643C1231.17 346.371 1230.47 343.52 1229.07 341.089C1227.76 338.659 1225.89 336.789 1223.46 335.48C1221.03 334.078 1218.18 333.377 1214.9 333.377C1211.54 333.377 1208.55 334.124 1205.93 335.62C1203.31 337.023 1201.4 339.22 1200.18 342.211L1182.37 338.004L1190.78 279.528H1249.12V297.758H1199.62L1207.75 287.942L1202 331.413L1196.11 326.225C1198.45 322.392 1201.4 319.587 1204.95 317.811C1208.59 316.035 1213.27 315.147 1218.97 315.147C1225.98 315.147 1232.01 316.642 1237.06 319.634C1242.11 322.532 1245.99 326.552 1248.7 331.694C1251.5 336.836 1252.91 342.819 1252.91 349.643C1252.91 356.468 1251.22 362.638 1247.86 368.154C1244.59 373.576 1240.1 377.877 1234.4 381.055C1228.69 384.14 1222.2 385.683 1214.9 385.683Z" fill="white"/>
</g>
<defs>
<clipPath id="clip0_2002_78">
<rect width="1279" height="405" fill="white"/>
</clipPath>
</defs>
</svg>
